# xmcd CD database file
#
# Track frame offsets:
#	150
#	16380
#	27596
#	41548
#	58219
#	72539
#	87839
#	103299
#	122117
#	142101
#	154710
#
# Disc length: 2268 seconds
#
# Revision: 0
# Processed by: cddbd v1.5.2PL0 Copyright (c) Steve Scherf et al.
# Submitted via: CDex 1.50beta9
#
DISCID=a108da0b
DTITLE=Clay Cooper - Third Times the Charm
DYEAR=2006
DGENRE=Country
TTITLE0=Way Down South
TTITLE1=She's My Rock
TTITLE2=My Own Kind of Hat
TTITLE3=Go Girl Go
TTITLE4=Why Can't We All Just Get A Long Neck
TTITLE5=Pennies From Heaven
TTITLE6=Ain't Nobody Here But Us Chickens
TTITLE7=Mona Lisa Lost Her Smile
TTITLE8=Amos Moses
TTITLE9=Me and God
TTITLE10=In God We Still Trust
EXTD=YEAR: 2006
EXTT0=
EXTT1=
EXTT2=
EXTT3=
EXTT4=
EXTT5=
EXTT6=
EXTT7=
EXTT8=
EXTT9=
EXTT10=
PLAYORDER=
